<svg width="71" height="72" viewBox="0 0 71 72" fill="none" xmlns="http://www.w3.org/2000/svg">
<path d="M59.1874 54.1485C58.7436 53.6445 58.5395 52.713 58.3132 51.7185C58.0913 50.7285 57.8384 49.662 57.0352 48.9735V48.969C56.7422 48.7115 56.4074 48.5075 56.0456 48.366C57.1639 45.0135 56.7246 41.6745 55.6019 38.6595C54.2174 34.956 51.8078 31.7295 49.9663 29.5245C47.9073 26.8875 45.8926 24.3855 45.9281 20.691C45.9903 15.048 46.5405 4.58549 36.7514 4.57199C36.352 4.57199 35.9393 4.58999 35.5089 4.62599C24.566 5.51699 27.4681 17.2395 27.304 21.1635C27.1043 24.0345 26.5318 26.2935 24.5838 29.1015C22.2985 31.86 19.0813 36.3195 17.5548 40.968C16.8359 43.1595 16.4898 45.396 16.8093 47.511C16.7072 47.601 16.614 47.6955 16.5253 47.7945C15.8552 48.519 15.3582 49.401 14.8035 49.995C14.2888 50.517 13.5521 50.715 12.7445 51.0075C11.9325 51.3045 11.045 51.7365 10.508 52.785V52.7895C10.2698 53.2609 10.1523 53.7855 10.1663 54.315C10.1663 54.801 10.2373 55.2915 10.3083 55.764C10.4592 56.754 10.6101 57.6855 10.4104 58.3155C9.77139 60.093 9.68708 61.317 10.1397 62.208C10.5923 63.1035 11.5153 63.495 12.567 63.7155C14.666 64.1655 17.5104 64.053 19.7513 65.2545C22.1476 66.528 24.5838 66.978 26.523 66.5325C27.201 66.3975 27.8381 66.1022 28.3824 65.6706C28.9268 65.239 29.3631 64.6832 29.6558 64.0485C31.1735 64.0395 32.8375 63.3915 35.5045 63.2385C37.315 63.0945 39.5781 63.891 42.174 63.747C42.2413 64.0329 42.3427 64.3094 42.4758 64.5705L42.4802 64.575C43.4875 66.6225 45.3646 67.554 47.3615 67.3965C49.3583 67.2345 51.4795 66.042 53.1968 63.9675C54.8386 61.9515 57.5544 61.119 59.356 60.0165C60.2568 59.463 60.989 58.7745 61.0423 57.771C61.1 56.772 60.5186 55.6515 59.1874 54.1485Z" fill="#202020"/>
<path d="M60.2213 57.726C60.1902 58.3425 59.7465 58.806 58.9344 59.301C57.3014 60.3 54.4126 61.164 52.571 63.432C50.9647 65.367 49.0122 66.4245 47.2904 66.564C45.5731 66.699 44.091 65.979 43.2123 64.197V64.188C42.6665 63.1395 42.8928 61.488 43.3499 59.7465C43.807 58.005 44.4637 56.214 44.5525 54.7605C44.6412 52.893 44.7477 51.264 45.0583 50.0085C45.369 48.7485 45.8527 47.9025 46.7135 47.421C46.7531 47.3993 46.793 47.3783 46.8333 47.358C46.931 48.9735 47.7208 50.6205 49.1142 50.976C50.6363 51.381 52.8328 50.058 53.7603 48.9735L54.3017 48.9555C55.1182 48.933 55.7971 48.9825 56.4982 49.599C57.0352 50.058 57.2925 50.9355 57.5144 51.9075C57.7363 52.884 57.9138 53.946 58.575 54.702C59.8485 56.142 60.2612 57.105 60.2213 57.726ZM29.252 62.2935V62.307C29.1011 64.2645 28.0095 65.331 26.341 65.718C24.668 66.105 22.4005 65.718 20.1373 64.521C17.6302 63.171 14.6482 63.306 12.74 62.901C11.7815 62.6985 11.1558 62.3925 10.8718 61.83C10.5878 61.263 10.579 60.2775 11.1869 58.59V58.5855L11.1913 58.5765C11.4931 57.636 11.2712 56.6055 11.1248 55.638C10.9783 54.675 10.9073 53.793 11.2313 53.181L11.2357 53.1765C11.6528 52.362 12.2652 52.0695 13.024 51.795C13.7784 51.516 14.6792 51.3 15.3892 50.58L15.3937 50.5755C16.0504 49.869 16.5518 48.987 17.1287 48.3615C17.6168 47.835 18.105 47.484 18.8372 47.4795H18.8593C18.9976 47.4808 19.1356 47.4928 19.272 47.5155C20.2483 47.664 21.0958 48.357 21.9168 49.482L24.282 53.8515V53.856C24.9121 55.188 26.2389 56.655 27.366 58.149C28.4932 59.6475 29.3629 61.146 29.252 62.2935Z" fill="#F8BF11"/>
<path d="M41.0469 21.546C40.8561 21.168 40.47 20.808 39.8044 20.5335C38.4288 19.935 37.8342 19.8945 37.0665 19.3905C35.824 18.576 34.79 18.2925 33.9336 18.2925C33.5225 18.2945 33.1146 18.366 32.7266 18.504C31.6794 18.864 30.9871 19.629 30.5522 20.043C30.4635 20.1285 30.357 20.2005 30.0907 20.403C29.8245 20.5965 29.4251 20.898 28.8482 21.339C28.329 21.726 28.1649 22.239 28.3424 22.833C28.5199 23.427 29.0834 24.1155 30.1174 24.7095C30.7608 25.092 31.2045 25.6095 31.7104 26.019C31.9645 26.2332 32.2468 26.4104 32.5491 26.5455C32.8686 26.685 33.2414 26.7795 33.7029 26.8065C34.8034 26.874 35.611 26.5365 36.321 26.127C37.031 25.713 37.6345 25.209 38.3267 24.9795C39.7467 24.5295 40.7629 23.625 41.0824 22.761C41.163 22.5678 41.2016 22.3593 41.1955 22.1496C41.1894 21.9399 41.1387 21.734 41.0469 21.546Z" fill="#D6A312"/>
<path d="M37.4436 23.67C36.3121 24.2685 34.9941 24.993 33.5875 24.993C32.1852 24.993 31.0758 24.336 30.2815 23.6925C29.8821 23.3775 29.5582 23.0535 29.3141 22.824C28.8881 22.4865 28.9414 22.0095 29.1145 22.023C29.4073 22.059 29.4517 22.4505 29.6336 22.626C29.8821 22.86 30.1928 23.166 30.57 23.4675C31.3243 24.075 32.3316 24.6645 33.5875 24.6645C34.8477 24.6645 36.3121 23.9175 37.2085 23.4045C37.7188 23.1165 38.3622 22.599 38.8903 22.2075C39.2896 21.906 39.2763 21.546 39.6091 21.5865C39.942 21.627 39.6979 21.987 39.232 22.3965C38.766 22.8105 38.0338 23.3595 37.4436 23.67Z" fill="#202020"/>
<path d="M54.7454 48.123C54.5916 48.1183 54.4377 48.1183 54.2839 48.123H54.2396C54.6301 46.8765 53.7692 45.963 51.4839 44.9145C49.1143 43.857 47.2239 43.9605 46.9044 46.107C46.8822 46.2195 46.8644 46.332 46.8556 46.449C46.6718 46.515 46.4937 46.5963 46.3231 46.692C45.2048 47.3085 44.5969 48.429 44.2596 49.806C43.9224 51.1785 43.8248 52.839 43.7316 54.711C43.6739 55.647 43.2923 56.916 42.9062 58.266C39.0234 61.074 33.6318 62.289 29.0523 59.121C28.7417 58.626 28.3867 58.131 28.0184 57.645C27.7846 57.3352 27.5479 57.0277 27.3084 56.7225C27.716 56.7336 28.1214 56.6569 28.4976 56.4975C28.6856 56.4175 28.8557 56.2997 28.9976 56.1512C29.1394 56.0027 29.2501 55.8266 29.323 55.6335C29.6026 54.8685 29.323 53.7975 28.4266 52.5735C27.5347 51.345 26.0215 49.9635 23.7983 48.5775C22.1653 47.5425 21.2512 46.2825 20.8252 44.9145C20.3948 43.542 20.4524 42.057 20.7808 40.5945C21.4154 37.782 23.0439 35.046 24.0779 33.3315C24.3574 33.1245 24.1799 33.7185 23.0306 35.883C22.0011 37.863 20.0708 42.4305 22.7111 45.999C22.7821 43.461 23.3768 40.869 24.3841 38.4525C25.844 35.091 28.9014 29.268 29.1411 24.624C29.2698 24.714 29.6958 25.011 29.891 25.119C30.4501 25.4565 30.8717 25.947 31.4175 26.3925C32.1293 27.0017 33.0381 27.3222 33.9691 27.2925C35.0341 27.2925 35.8639 26.937 36.5517 26.5365C37.3061 26.1045 37.9007 25.6185 38.4731 25.434C39.6713 25.0515 40.6298 24.3765 41.1711 23.589C42.103 27.324 44.2774 32.7105 45.6708 35.3385C46.4118 36.7335 47.8895 39.699 48.5241 43.2675C48.9279 43.2585 49.3716 43.3125 49.8509 43.4385C51.5149 39.06 48.4353 34.3395 47.0286 33.0255C46.4606 32.4675 46.4296 32.2155 46.718 32.229C48.2401 33.597 50.2458 36.3555 50.978 39.465C51.3108 40.8825 51.3774 42.372 51.0224 43.8435C51.1999 43.92 51.3774 43.9965 51.5549 44.0865C54.2307 45.405 55.2203 46.5525 54.7454 48.123Z" fill="white"/>
<path d="M35.6775 36.279C33.2102 36.288 30.8006 37.4085 28.7638 39.501C26.7226 41.589 25.1517 44.55 24.2465 47.997L24.5171 48.168V48.186C26.6028 49.527 28.0893 50.877 29.0079 52.137C29.9797 53.469 30.4101 54.765 29.9975 55.89C29.7796 56.4583 29.3489 56.9161 28.7993 57.1635L28.6174 57.231C28.9458 57.6675 29.2653 58.1175 29.5626 58.581C33.7516 61.407 38.624 60.363 42.2849 57.807C42.6399 56.556 42.9638 55.395 43.0082 54.666C43.1014 52.7985 43.1946 51.102 43.5585 49.626C43.9223 48.141 44.6323 46.791 45.9725 46.0485C46.0479 46.0035 46.1233 45.981 46.1988 45.945C46.2224 45.802 46.255 45.6607 46.2964 45.522C45.2225 42.723 43.6738 40.392 41.8145 38.772C39.9508 37.152 37.8341 36.2925 35.6819 36.279H35.6775ZM46.1943 45.9765L46.1855 45.999V45.99L46.1899 45.972L46.1943 45.9765Z" fill="#E6E6E6"/>
<path d="M41.1712 17.2485C41.1903 18.3134 40.8541 19.3537 40.2171 20.2005C39.8985 20.0562 39.5759 19.9211 39.2497 19.7955L38.6862 19.593C38.8148 19.4355 39.0633 19.2555 39.161 19.0215C39.3015 18.6742 39.3768 18.3033 39.3828 17.928L39.3873 17.883C39.3983 17.5224 39.3457 17.1628 39.232 16.821C39.1426 16.5089 38.9779 16.2243 38.7527 15.993C38.6634 15.8969 38.5563 15.8196 38.4375 15.7655C38.3188 15.7115 38.1906 15.6817 38.0605 15.678H38.0294C37.7809 15.6815 37.5424 15.7776 37.3593 15.948C37.1171 16.1607 36.931 16.4314 36.818 16.7355C36.6781 17.083 36.6029 17.4537 36.5961 17.829V17.874C36.5891 18.0848 36.6025 18.2958 36.636 18.504C36.1326 18.2684 35.6061 18.0874 35.0652 17.964C35.0394 17.7655 35.0246 17.5657 35.0208 17.3655V17.307C35.002 16.6154 35.1354 15.9283 35.4113 15.2955C35.6462 14.7129 36.029 14.2037 36.5206 13.8195C36.9555 13.4633 37.4971 13.2681 38.056 13.266H38.0827C38.6373 13.266 39.1122 13.428 39.6003 13.788C40.1029 14.1611 40.4969 14.6648 40.7407 15.246C41.0203 15.867 41.1578 16.4745 41.1712 17.1945L41.1756 17.2485H41.1712ZM32.7843 17.9865C32.3498 18.1126 31.9358 18.302 31.5551 18.549C31.5848 18.3252 31.5878 18.0985 31.564 17.874V17.838C31.5368 17.5407 31.465 17.2493 31.351 16.974C31.2596 16.7317 31.1138 16.5145 30.925 16.3395C30.8556 16.2705 30.7728 16.2168 30.6819 16.182C30.591 16.1471 30.494 16.1318 30.3969 16.137C30.2105 16.155 30.0552 16.245 29.9088 16.4295C29.7529 16.6359 29.6465 16.8762 29.5982 17.1315C29.529 17.4337 29.5095 17.7454 29.5405 18.054V18.09C29.566 18.3891 29.6379 18.6822 29.7535 18.9585C29.8597 19.2352 30.0375 19.4777 30.2682 19.6605L29.8156 20.0205L29.4695 20.2725C29.162 19.9659 28.9203 19.5982 28.7595 19.1925C28.5243 18.6525 28.3956 18.1125 28.3601 17.478V17.4735C28.3194 16.881 28.3871 16.286 28.5598 15.7185C28.6922 15.2236 28.9473 14.7712 29.3008 14.4045C29.4491 14.2385 29.6299 14.1055 29.8315 14.0141C30.0332 13.9227 30.2514 13.8748 30.4723 13.8735C30.8451 13.8735 31.1735 13.9995 31.5152 14.2785C31.9055 14.6036 32.2092 15.0229 32.3982 15.498C32.6334 16.038 32.7532 16.578 32.7932 17.217C32.8065 17.487 32.8065 17.739 32.7843 17.9865Z" fill="white"/>
<path d="M34.6392 19.5075C34.6835 19.6605 34.9276 19.638 35.0696 19.71C35.1894 19.773 35.2915 19.9125 35.4246 19.917C35.5577 19.9215 35.7618 19.872 35.7796 19.737C35.8018 19.566 35.5488 19.4535 35.3891 19.3905C35.1805 19.305 34.9143 19.2645 34.719 19.377C34.6747 19.3995 34.6258 19.4535 34.6392 19.5075ZM33.2103 19.5075C33.1659 19.6605 32.9218 19.638 32.7843 19.71C32.66 19.773 32.5624 19.9125 32.4248 19.917C32.2917 19.9215 32.0876 19.872 32.0698 19.737C32.0477 19.566 32.3006 19.4535 32.4603 19.3905C32.6689 19.305 32.9396 19.2645 33.1348 19.377C33.1792 19.3995 33.2236 19.4535 33.2103 19.5075Z" fill="#202020"/>
</svg>
