<svg width="71" height="71" viewBox="0 0 71 71" fill="none" xmlns="http://www.w3.org/2000/svg">
<path fill-rule="evenodd" clip-rule="evenodd" d="M35.5 35.5C35.5 30.5986 39.4736 26.625 44.375 26.625C49.2764 26.625 53.25 30.5986 53.25 35.5C53.25 40.4014 49.2764 44.375 44.375 44.375C39.4736 44.375 35.5 40.4014 35.5 35.5Z" fill="#1ABCFE"/>
<path fill-rule="evenodd" clip-rule="evenodd" d="M17.75 53.25C17.75 48.3486 21.7235 44.375 26.625 44.375H35.5V53.25C35.5 58.1514 31.5264 62.125 26.625 62.125C21.7235 62.125 17.75 58.1514 17.75 53.25Z" fill="#0ACF83"/>
<path fill-rule="evenodd" clip-rule="evenodd" d="M35.5 8.875V26.625H44.375C49.2764 26.625 53.25 22.6514 53.25 17.75C53.25 12.8485 49.2764 8.875 44.375 8.875H35.5Z" fill="#FF7262"/>
<path fill-rule="evenodd" clip-rule="evenodd" d="M17.75 17.75C17.75 22.6514 21.7235 26.625 26.625 26.625H35.5V8.875H26.625C21.7235 8.875 17.75 12.8485 17.75 17.75Z" fill="#F24E1E"/>
<path fill-rule="evenodd" clip-rule="evenodd" d="M17.75 35.5C17.75 40.4014 21.7235 44.375 26.625 44.375H35.5V26.625H26.625C21.7235 26.625 17.75 30.5986 17.75 35.5Z" fill="#A259FF"/>
</svg>
