<svg width="71" height="71" viewBox="0 0 71 71" fill="none" xmlns="http://www.w3.org/2000/svg">
<g clip-path="url(#clip0_12_21)">
<path fill-rule="evenodd" clip-rule="evenodd" d="M35.5 0C55.1066 0 71 16.2943 71 36.3979C71 52.4759 60.8399 66.1151 46.7428 70.9324C44.943 71.291 44.304 70.1543 44.304 69.1851C44.304 67.9852 44.3466 64.0662 44.3466 59.1956C44.3466 55.8018 43.2106 53.5867 41.9362 52.4578C49.842 51.5561 58.149 48.478 58.149 34.4981C58.149 30.5221 56.7716 27.2776 54.4925 24.7287C54.8617 23.8092 56.0793 20.107 54.1446 15.0944C54.1446 15.0944 51.1697 14.1191 44.3927 18.8264C41.5563 18.0206 38.5175 17.6151 35.5 17.6009C32.4825 17.6151 29.4473 18.0206 26.6144 18.8264C19.8303 14.1191 16.8483 15.0944 16.8483 15.0944C14.9207 20.107 16.1383 23.8092 16.504 24.7287C14.2355 27.2776 12.8475 30.5221 12.8475 34.4981C12.8475 48.4425 21.1367 51.5679 29.0213 52.4873C28.006 53.3961 27.0865 54.9993 26.767 57.353C24.7435 58.2831 19.6031 59.8928 16.4365 54.3299C16.4365 54.3299 14.5585 50.8327 10.9944 50.5771C10.9944 50.5771 7.5331 50.5311 10.7529 52.7889C10.7529 52.7889 13.0782 53.9072 14.6934 58.1139C14.6934 58.1139 16.7773 64.6103 26.6534 62.4093C26.6712 65.4516 26.7031 68.3189 26.7031 69.1851C26.7031 70.1472 26.0499 71.2731 24.2784 70.9359C10.1707 66.1256 0 52.4794 0 36.3979C0 16.2943 15.8969 0 35.5 0Z" fill="white"/>
</g>
<defs>
<clipPath id="clip0_12_21">
<rect width="71" height="71" fill="white"/>
</clipPath>
</defs>
</svg>
