<svg width="71" height="71" viewBox="0 0 71 71" fill="none" xmlns="http://www.w3.org/2000/svg">
<path d="M66.5625 35.5C66.5625 18.3447 52.6553 4.4375 35.5 4.4375C18.3447 4.4375 4.4375 18.3447 4.4375 35.5C4.4375 52.6553 18.3447 66.5625 35.5 66.5625C52.6553 66.5625 66.5625 52.6553 66.5625 35.5Z" fill="#1275B1"/>
<path d="M27.9975 21.5045C27.9975 23.578 26.2001 25.2589 23.9831 25.2589C21.766 25.2589 19.9688 23.578 19.9688 21.5045C19.9688 19.4309 21.766 17.75 23.9831 17.75C26.2001 17.75 27.9975 19.4309 27.9975 21.5045Z" fill="white"/>
<path d="M20.5177 28.0186H27.3798V48.8125H20.5177V28.0186Z" fill="white"/>
<path d="M38.4279 28.0186H31.5657V48.8125H38.4279C38.4279 48.8125 38.4279 42.2663 38.4279 38.1733C38.4279 35.7165 39.2668 33.249 42.6138 33.249C46.3963 33.249 46.3737 36.464 46.3559 38.9548C46.3328 42.2104 46.3879 45.5329 46.3879 48.8125H53.25V37.8379C53.1919 30.8304 51.3659 27.6014 45.3586 27.6014C41.7911 27.6014 39.5796 29.2211 38.4279 30.6864V28.0186Z" fill="white"/>
</svg>
