<svg width="71" height="71" viewBox="0 0 71 71" fill="none" xmlns="http://www.w3.org/2000/svg">
<path d="M35.2448 4.65938C19.4917 4.65938 20.4879 11.4709 20.4879 11.4709V18.5488H35.4689V20.7675H14.5217C14.5217 20.7675 4.4375 19.525 4.4375 35.5111C4.4375 51.4972 13.3413 50.8471 13.3413 50.8471H18.4822V43.3899C18.4822 43.3899 18.1937 34.486 27.1353 34.486H42.1385C42.1385 34.486 50.5076 34.6192 50.5076 26.3832V12.8688C50.5076 12.8688 51.7767 4.63275 35.3269 4.63275L35.2448 4.65938ZM26.9645 9.40085C27.4971 9.38741 28.0217 9.53221 28.472 9.81694C28.9223 10.1017 29.278 10.5135 29.4942 11.0004C29.7104 11.4874 29.7774 12.0275 29.6866 12.5524C29.5958 13.0774 29.3514 13.5637 28.9843 13.9497C28.6172 14.3358 28.1438 14.6043 27.624 14.7213C27.1043 14.8384 26.5615 14.7986 26.0644 14.6071C25.5672 14.4157 25.138 14.0811 24.831 13.6457C24.524 13.2102 24.353 12.6936 24.3397 12.161V12.1166C24.3397 11.7629 24.4094 11.4126 24.5447 11.0858C24.6801 10.759 24.8785 10.4621 25.1286 10.212C25.3787 9.96184 25.6757 9.76343 26.0025 9.62807C26.3293 9.4927 26.6795 9.42303 27.0333 9.42303L26.9645 9.40085Z" fill="url(#paint0_linear_12_39)"/>
<path d="M35.6885 66.3628C51.4417 66.3628 50.4455 59.5291 50.4455 59.5291V52.4734H35.4667V50.2547H56.4782C56.4782 50.2547 66.5625 51.3818 66.5625 35.4889C66.5625 19.596 57.6586 20.1529 57.6586 20.1529H52.4512V27.5125C52.4512 27.5125 52.7396 36.4163 43.7981 36.4163H28.7882C28.7882 36.4163 20.4124 36.2899 20.4124 44.5259V58.1312C20.4124 58.1312 19.1433 66.3672 35.5931 66.3672H35.6819L35.6885 66.3628ZM43.9689 61.5992C43.4363 61.6126 42.9117 61.4678 42.4614 61.1831C42.0111 60.8983 41.6554 60.4865 41.4392 59.9995C41.223 59.5126 41.156 58.9725 41.2468 58.4476C41.3376 57.9226 41.582 57.4363 41.9491 57.0503C42.3162 56.6642 42.7896 56.3957 43.3093 56.2787C43.8291 56.1616 44.3719 56.2014 44.869 56.3928C45.3662 56.5843 45.7954 56.9189 46.1024 57.3543C46.4094 57.7898 46.5804 58.3064 46.5937 58.839V58.9056C46.5937 59.62 46.3099 60.3051 45.8048 60.8102C45.2996 61.3154 44.6145 61.5992 43.9001 61.5992H43.9689Z" fill="url(#paint1_linear_12_39)"/>
<defs>
<linearGradient id="paint0_linear_12_39" x1="10.5771" y1="10.7008" x2="40.0569" y2="40.1138" gradientUnits="userSpaceOnUse">
<stop stop-color="#387EB8"/>
<stop offset="1" stop-color="#366994"/>
</linearGradient>
<linearGradient id="paint1_linear_12_39" x1="28.0172" y1="29.8612" x2="61.6983" y2="59.2654" gradientUnits="userSpaceOnUse">
<stop stop-color="#FFE052"/>
<stop offset="1" stop-color="#FFC331"/>
</linearGradient>
</defs>
</svg>
