<svg width="72" height="71" viewBox="0 0 72 71" fill="none" xmlns="http://www.w3.org/2000/svg">
<path d="M5.81706 38.6355C4.06098 36.9038 4.06098 34.0962 5.81706 32.3645L32.8203 5.73627C34.5764 4.00458 37.4236 4.00458 39.1797 5.73627L66.1828 32.3645C67.939 34.0962 67.939 36.9038 66.1828 38.6355L39.1797 65.2636C37.4236 66.9954 34.5764 66.9954 32.8203 65.2636L5.81706 38.6355Z" fill="#EE513B"/>
<path d="M27.335 11.2303L24.6006 13.9268L31.6631 20.8912C31.3774 21.4957 31.2178 22.1698 31.2178 22.8806C31.2178 24.8988 32.5037 26.6208 34.3116 27.2933V44.3302C32.5037 45.0027 31.2178 46.7247 31.2178 48.7428C31.2178 51.3468 33.3585 53.4577 35.9991 53.4577C38.6397 53.4577 40.7803 51.3468 40.7803 48.7428C40.7803 46.9133 39.7235 45.3269 38.1789 44.5454V27.3166L44.93 33.9739C44.6582 34.5661 44.507 35.2236 44.507 35.9158C44.507 38.5197 46.6477 40.6306 49.2883 40.6306C51.9289 40.6306 54.0695 38.5197 54.0695 35.9158C54.0695 33.3119 51.9289 31.201 49.2883 31.201C48.775 31.201 48.2809 31.2806 47.8174 31.4282L40.5668 24.2782C40.7056 23.8367 40.7803 23.3672 40.7803 22.8806C40.7803 20.2767 38.6397 18.1658 35.9991 18.1658C35.5057 18.1658 35.0298 18.2395 34.5818 18.3764L27.335 11.2303Z" fill="white"/>
</svg>
