<svg width="868" height="868" viewBox="0 0 868 868" fill="none" xmlns="http://www.w3.org/2000/svg">
<g clip-path="url(#clip0_178_24)">
<path d="M434 0C194.283 0 0 194.283 0 434C0 673.717 194.283 868 434 868C673.717 868 868 673.717 868 434C868 194.283 673.717 0 434 0ZM312.616 615.568H228.02V344.827H312.616V615.568ZM268.029 310.92H267.351C236.666 310.92 216.83 290.238 216.83 263.96C216.83 237.174 237.344 217 268.537 217C299.731 217 318.888 237.174 319.566 263.96C319.736 290.068 299.901 310.92 268.029 310.92ZM651 615.568H555.045V475.535C555.045 438.916 540.127 413.826 507.068 413.826C481.808 413.826 467.737 430.779 461.295 447.054C458.921 452.818 459.26 460.955 459.26 469.262V615.568H364.153C364.153 615.568 365.34 367.374 364.153 344.827H459.26V387.379C464.855 368.73 495.201 342.284 543.687 342.284C603.87 342.284 651 381.276 651 465.024V615.568Z" fill="white"/>
</g>
<defs>
<clipPath id="clip0_178_24">
<rect width="868" height="868" fill="white"/>
</clipPath>
</defs>
</svg>
