<?xml version="1.0" encoding="utf-8"?>
<!-- Generator: Adobe Illustrator 24.0.0, SVG Export Plug-In . SVG Version: 6.00 Build 0)  -->
<svg version="1.1" xmlns="http://www.w3.org/2000/svg" xmlns:xlink="http://www.w3.org/1999/xlink" x="0px" y="0px"
	 viewBox="0 0 2000 2000" style="enable-background:new 0 0 2000 2000;" xml:space="preserve">
<style type="text/css">
	.st0{fill:none;}
	.st1{fill:#FDA0A9;}
	.st2{fill:#60C6ED;}
</style>
<g id="Calque_1">
	<path class="st0" d="M1271.2,1168.9c-9.6,2.4-19.4,4.4-29.4,5.9L1271.2,1168.9z"/>
	<path class="st0" d="M1046.8,774.9v364.5c-2.3-1.3-4.5-2.6-6.7-3.9c-4.8-2.8-9.5-5.8-14.1-8.9c-39-26.2-71.5-61.3-94.4-102.3
		c-8-14.3-14.8-29.4-20.3-45.1l43.5-82.6l0.1-0.2l5.7-10.8l0.1-0.1c0.1-0.2,0.1-0.3,0.2-0.5c0,0,0,0,0,0l31.5-59.9v0
		c-3.6-14.1-8.6-27.6-15-40.3v0c-0.1-0.2-0.3-0.5-0.4-0.7c-0.3-0.6-0.6-1.1-0.9-1.7c-0.3-0.6-0.6-1.1-0.9-1.7
		c-0.6-1.1-1.2-2.2-1.7-3.2c-1-1.9-2.1-3.7-3.2-5.5c-0.2-0.4-0.5-0.8-0.7-1.2c-1.1-1.8-2.2-3.7-3.4-5.5c-0.3-0.4-0.5-0.8-0.8-1.2
		c-0.4-0.6-0.8-1.2-1.2-1.9c-0.2-0.4-0.5-0.7-0.7-1.1c-1.3-1.9-2.7-3.8-4-5.7c-0.3-0.5-0.7-0.9-1-1.4c-0.3-0.4-0.7-0.9-1-1.3
		c-0.4-0.5-0.8-1.1-1.3-1.6c-1.1-1.4-2.1-2.7-3.3-4.1c-0.5-0.7-1.1-1.3-1.6-1.9c0,0,0-0.1-0.1-0.1c-0.5-0.6-1-1.2-1.6-1.8
		c-0.8-1-1.7-2-2.5-2.9c-0.6-0.7-1.2-1.3-1.8-1.9c0,0,0,0-0.1-0.1c-0.5-0.5-0.9-1-1.4-1.5c-0.1-0.1-0.1-0.2-0.2-0.2
		c-0.6-0.6-1.2-1.3-1.8-1.9l-0.9,1.7l-4.9,9.3l-30,56.9c1.5-5.5,3.3-10.8,5.1-16.2c5.4-15.6,12.2-30.5,20.1-44.8
		c2.1-3.8,4.2-7.5,6.5-11.1c12.7-20.8,28-40,45.4-57.1c1.8-1.8,3.6-3.5,5.4-5.2c2.6,1.6,5.2,3.3,7.7,5.2
		c13.1,9.6,24.5,22.2,33.2,37.1c0,0,0,0,0,0c4.8,8.2,8.7,17.1,11.7,26.6c0.9,2.9,1.7,5.7,2.3,8.6
		C1045.6,755.3,1046.8,765.2,1046.8,774.9z"/>
	<path class="st0" d="M1246.5,1082.4L1246.5,1082.4c-7,1.8-14.1,3.2-21.4,4.3l-0.1,0l-39.3,7.9v83.4c-17.8-0.6-35.1-2.7-52-6.1
		V715.7c-4.8-7-10-13.8-15.4-20.3c-6.4-7.8-13.3-15.2-20.4-22.3c-4-3.9-8.1-7.8-12.3-11.4c5,4.3,11,8.1,17.8,11.4
		c0.2,0.1,0.3,0.1,0.5,0.2c7.7,3.7,16.4,6.6,25.8,8.6c1.2,0.3,2.5,0.5,3.7,0.7c0.1,0,0.2,0,0.3,0.1c8.8,1.5,17.4,2,25.3,1.5
		c0.7-0.1,1.4-0.2,2.1-0.3c3.3-0.5,6.7-1,10-1.4c0.5-0.1,1-0.1,1.5-0.2c5.5-0.6,11-0.9,16.6-1c114.6-2.8,209.8,86.2,212.5,198.7
		C1404.2,976.6,1337.8,1059.1,1246.5,1082.4z"/>
	<path class="st0" d="M1046.8,774.9v253.7c-27.4-27.2-47.1-61.9-55.6-100.9v0c-2.6-12.1-4.1-24.7-4.5-37.5
		c-0.1-4.6-0.1-9.3,0.1-13.8v0c0.7-15.3,3.1-30.2,7-44.5c3.6-13.2,8.6-25.9,14.8-38l2.3-4.3c8.8-16.1,19.6-31,32.3-44.2
		C1045.6,755.3,1046.8,765.2,1046.8,774.9z"/>
	<path class="st0" d="M1246.5,1082.4L1246.5,1082.4c-7,1.8-14.1,3.2-21.4,4.3l-0.1,0c-8.4,1.2-17,2-25.8,2.2
		c-4.5,0.1-9.1,0.1-13.5-0.1c-18-0.7-35.4-3.6-52-8.6V715.7c-4.8-7-10-13.8-15.4-20.3c5-1.9,10.2-3.7,15.4-5.3
		c8.2-2.5,16.7-4.5,25.3-5.9c0.7-0.1,1.4-0.2,2.1-0.3c3.3-0.5,6.7-1,10-1.4c0.5-0.1,1-0.1,1.5-0.2c5.5-0.6,11-0.9,16.6-1
		c114.6-2.8,209.8,86.2,212.5,198.7C1404.2,976.6,1337.8,1059.1,1246.5,1082.4z"/>
	<path class="st0" d="M1046.8,774.9v356.5c-2.2,1.4-4.4,2.8-6.7,4.1c-14.3,8.5-29.5,15.9-45.3,22.1v-24.7l-120.6,24.2c0,0,0,0,0,0
		c0,0,0,0,0,0l-0.3,0l-50.6,10.1c-2.8,1.1-5.3,2.2-7.5,3.4h0c-1.4-0.3-2.9-0.7-4.3-1h0c-0.1,0-0.2,0-0.3-0.1l55.3-105.1l44.8-85.2
		l43.5-82.6l0.1-0.2l5.7-10.8l0.1-0.1c0.1-0.2,0.1-0.3,0.2-0.5c0,0,0,0,0,0l31.5-59.9v0c-3.6-14.1-8.6-27.6-15-40.3v0
		c-0.1-0.2-0.3-0.5-0.4-0.7c-0.3-0.6-0.6-1.1-0.9-1.7c-0.3-0.6-0.6-1.1-0.9-1.7c-0.6-1.1-1.2-2.2-1.7-3.2c-1-1.9-2.1-3.7-3.2-5.5
		c-0.2-0.4-0.5-0.8-0.7-1.2c-1.1-1.8-2.2-3.7-3.4-5.5c-0.3-0.4-0.5-0.8-0.8-1.2c-0.4-0.6-0.8-1.2-1.2-1.9c-0.2-0.4-0.5-0.7-0.7-1.1
		c-1.3-1.9-2.7-3.8-4-5.7c-0.3-0.5-0.7-0.9-1-1.4c-0.3-0.4-0.7-0.9-1-1.3c-0.4-0.5-0.8-1.1-1.3-1.6c-1.1-1.4-2.1-2.7-3.3-4.1
		c-0.5-0.7-1.1-1.3-1.6-1.9c0,0,0-0.1-0.1-0.1c-0.5-0.6-1-1.2-1.6-1.8c-0.8-1-1.7-2-2.5-2.9c-0.6-0.7-1.2-1.3-1.8-1.9
		c0,0,0,0-0.1-0.1c-0.5-0.5-0.9-1-1.4-1.5c-0.1-0.1-0.1-0.2-0.2-0.2c-0.6-0.6-1.2-1.3-1.8-1.9l-0.9,1.7l-4.9,9.3l-30,56.9v0
		l-9.9,18.8l-21.4,40.7l-46.5,88.3l-66.5,126.3l-28.5,54.1l-3.3,6.2c-67-39.2-117.4-103.3-137.6-179.7c-2.6-9.7-4.6-19.6-6.2-29.7v0
		c-1.9-12.3-3.1-25-3.4-37.8c-1-42.3,7-82.7,22.4-119.5c0,0,0,0,0,0c5.3-9,11.2-17.7,17.7-25.8c8.1-10,17.1-19.2,26.9-27.6
		c0,0,0,0,0,0c5.7-4.8,11.6-9.3,17.8-13.5c0,0,0,0,0,0c0,0,0.1,0,0.1,0c15.9-10.8,33.3-19.5,52-25.6c0,0,0,0,0,0
		c25.5-9.9,54.5-18,85.6-23.4c3.8-0.7,7.6-1.3,11.3-1.8c2-0.3,4-0.6,6.1-0.9c44.2-6,85.6-5.4,119.5,0.7c3.1,0.5,6,1.1,9,1.8
		c0.7,0.1,1.4,0.3,2.2,0.5c0.6,0.1,1.1,0.3,1.7,0.4c5.1,1.2,9.9,2.5,14.6,4c6.5,2.5,12.7,5.6,18.7,9.3c2.6,1.6,5.2,3.3,7.7,5.2
		c13.1,9.6,24.5,22.2,33.2,37.1c0,0,0,0,0,0c4.8,8.2,8.7,17.1,11.7,26.6c0.9,2.9,1.7,5.7,2.3,8.6
		C1045.6,755.3,1046.8,765.2,1046.8,774.9z"/>
	<path class="st0" d="M1133.8,1048.1V715.7c31.5,45.4,50.5,100,51.9,159.1C1187.2,938.9,1167.9,998.8,1133.8,1048.1z"/>
	<path class="st0" d="M936.7,730.5l-5.7,10.8l-0.1,0.3l-30,56.9v0l-9.9,18.8l-2.6,5l-18.6,35.4l-0.1,0.3l-46.5,88.3l-1,1.8
		l-65.5,124.5c-20.3-2.8-39.7-8.4-57.8-16.6c-1.2-0.5-2.4-1.1-3.6-1.7c-41.5-19.7-75.3-52.6-95.8-93.2c-0.2-0.4-0.4-0.9-0.7-1.3
		c-5.1-10.3-9.4-21.2-12.7-32.4v0c-4.8-16.4-7.6-33.7-8-51.6c-0.9-38.4,9-74.6,27-105.7c0,0,0,0,0,0c5.3-9,11.2-17.7,17.7-25.8
		c8.1-10,17.1-19.2,26.9-27.6c0,0,0,0,0,0c5.7-4.8,11.6-9.3,17.8-13.5c0,0,0,0,0,0c0,0,0.1,0,0.1,0c15.9-10.8,33.3-19.5,52-25.6
		c0,0,0,0,0,0c19.2-6.3,39.7-10,61-10.5c12.6-0.3,24.9,0.5,37,2.3c0.2,0,0.4,0,0.6,0.1c1.5,0.2,3,0.5,4.5,0.7
		c5,0.9,9.9,1.9,14.8,3.1c5.9,1.5,11.7,3.2,17.3,5.2c2.2,0.8,4.4,1.5,6.5,2.4c26.9,10.3,51.1,26,71.2,45.7
		C934,727.7,935.3,729.1,936.7,730.5z"/>
	<path class="st0" d="M991.2,927.7L991.2,927.7c-10.3,37.5-31.3,70.8-59.6,96.5c-18.8,17.1-40.9,30.8-65.2,40.1l44.8-85.2l43.5-82.6
		l0.1-0.2l5.7-10.8l0.1-0.1c0.1-0.2,0.1-0.3,0.2-0.5c0,0,0,0,0,0l31.5-59.9c0.6,2.3,1.1,4.5,1.6,6.8c2.6,12.1,4.1,24.7,4.4,37.5
		c0,0.1,0,0.2,0,0.3C998.8,889.8,996.3,909.3,991.2,927.7z"/>
	<path class="st0" d="M713.8,1354.4c-0.9,1.9-1.9,3.7-2.9,5.6c-1,1.9-2,3.8-3.1,5.7L713.8,1354.4z"/>
	<path class="st0" d="M733.3,1130.5l-3.3,6.2l-142,269.9l0,0.1l-0.8,1.6c-37.9,71.4-110.8,112-185.5,111.2
		c-31.8-4.7-63.2-14.7-93.1-30.5c-20.4-10.8-39.1-23.6-55.8-38.1c-101.6-88.5-132.4-240-65.8-366.5
		c77.5-147.4,257.7-205.1,402.3-129c1,0.5,2.1,1.1,3.1,1.7c2.4,1.3,4.8,2.6,7.1,4c1.5,0.8,2.9,1.7,4.4,2.6
		c39.5,23.7,71.5,55.6,95.1,92.3c0.5,0.7,1,1.5,1.4,2.2C714.6,1080.7,725.6,1105,733.3,1130.5z"/>
	<path class="st0" d="M588.1,1406.6L588.1,1406.6l-0.9,1.7c-37.9,71.4-110.8,112-185.5,111.2c-30.9-0.3-62.1-7.8-91.2-23.1
		c-22.5-11.8-41.8-27.4-57.7-45.5c-54.3-62.1-67.4-154.6-26-233.2c53.4-101.5,177.4-141.3,277.1-88.8
		C603.1,1181.1,640.7,1305.3,588.1,1406.6z"/>
	<path class="st0" d="M1046.8,774.9c0,38.9-18.1,74.7-48.4,94.9c-3.7,2.4-7.5,4.6-11.5,6.6v0c-4.6,2.2-9.3,4.1-14.3,5.7
		c-3.9,1.2-7.9,2.2-11.8,2.9l31.5-59.9v0c-3.6-14.1-8.6-27.6-15-40.3v0c-0.1-0.2-0.3-0.5-0.4-0.7c-0.3-0.6-0.6-1.1-0.9-1.7
		c-0.3-0.6-0.6-1.1-0.9-1.7c-0.6-1.1-1.2-2.2-1.7-3.2c-1-1.9-2.1-3.7-3.2-5.5c-0.2-0.4-0.5-0.8-0.7-1.2c-1.1-1.8-2.2-3.7-3.4-5.5
		c-0.3-0.4-0.5-0.8-0.8-1.2c-0.4-0.6-0.8-1.2-1.2-1.9c-0.2-0.4-0.5-0.7-0.7-1.1c-1.3-1.9-2.7-3.8-4-5.7c-0.3-0.5-0.7-0.9-1-1.4
		c-0.3-0.4-0.7-0.9-1-1.3c-0.4-0.5-0.8-1.1-1.3-1.6c-1.1-1.4-2.1-2.7-3.3-4.1c-0.5-0.7-1.1-1.3-1.6-1.9c0,0,0-0.1-0.1-0.1
		c-0.5-0.6-1-1.2-1.6-1.8c-0.8-1-1.7-2-2.5-2.9c-0.6-0.7-1.2-1.3-1.8-1.9c0,0,0,0-0.1-0.1c-0.5-0.5-0.9-1-1.4-1.5
		c-0.1-0.1-0.1-0.2-0.2-0.2c-0.6-0.6-1.2-1.3-1.8-1.9l-0.9,1.7l-4.9,9.3l-30,56.9v0l-9.9,18.8l-21.4,40.7c-1.7-1.3-3.3-2.7-4.9-4.1
		c-8-7.2-15.1-15.5-21.2-24.9l-0.6-0.9c-5.9-9.3-10.7-19.5-14.1-30.6c-8.1-26-7.5-52.4,0.1-75.7c5.3-16.5,14.2-31.3,25.9-43.4
		c0.5-0.5,1-1,1.5-1.5c2.7-2.7,5.5-5.2,8.5-7.5c9.5-7.5,20.3-13.3,32.4-17.1c13.3-4.1,26.9-5.4,40.1-4c3.1,0.5,6,1.1,9,1.8
		c0.7,0.1,1.4,0.3,2.2,0.5c0.6,0.1,1.1,0.3,1.7,0.4c5.1,1.2,9.9,2.5,14.6,4c6.5,2.5,12.7,5.6,18.7,9.3c2.6,1.6,5.2,3.3,7.7,5.2
		c13.1,9.6,24.5,22.2,33.2,37.1c0,0,0,0,0,0c4.8,8.2,8.7,17.1,11.7,26.6c0.9,2.9,1.7,5.7,2.3,8.6
		C1045.6,755.3,1046.8,765.2,1046.8,774.9z"/>
	<path class="st0" d="M935.9,745.4l-30,56.9v0l-9.9,18.8l-21.4,40.7l-46.5,88.3c0,0-0.1,0-0.1,0c-2-0.6-3.9-1.3-5.8-2
		c-42.8-16.3-69.2-59.8-68.3-107.5v-0.2c0.2-11.7,2.1-23.6,5.8-35.5c12.1-38.8,40.6-67.4,74.3-79.3c20.5-7.2,42.8-8.2,64.4-1.5
		c12.1,3.8,23.1,9.7,32.6,17.2c0,0,0.1,0.1,0.1,0.1c1,0.8,1.9,1.6,2.9,2.4C934.6,744.3,935.3,744.9,935.9,745.4z"/>
	<path class="st0" d="M960.5,885.6c-1.7,3.7-3.6,7.3-5.7,10.8L960.5,885.6z"/>
	<path class="st0" d="M1008.9,758.4c-0.1,0.1-0.1,0.1-0.2,0.2c-8.4,8.8-19.1,17.3-31.7,25.4c-0.3-0.6-0.6-1.1-0.9-1.7
		c-0.3-0.6-0.6-1.1-0.9-1.7c-0.6-1.1-1.2-2.2-1.7-3.2c-1-1.9-2.1-3.7-3.2-5.5c-0.2-0.4-0.5-0.8-0.7-1.2c-1.1-1.8-2.2-3.7-3.4-5.5
		c-0.3-0.4-0.5-0.8-0.8-1.2c-0.4-0.6-0.8-1.2-1.2-1.9c-0.2-0.4-0.5-0.7-0.7-1.1c-1.3-1.9-2.7-3.8-4-5.7c-0.3-0.5-0.7-0.9-1-1.4
		c-0.3-0.4-0.7-0.9-1-1.3c-0.4-0.5-0.8-1.1-1.3-1.6c-1.1-1.4-2.1-2.7-3.3-4.1c-0.5-0.7-1.1-1.3-1.6-1.9c0,0,0-0.1-0.1-0.1
		c-0.5-0.6-1.1-1.2-1.6-1.8c-0.8-1-1.7-2-2.5-2.9c-0.6-0.7-1.2-1.3-1.8-1.9c0,0,0,0-0.1-0.1c-0.5-0.5-0.9-1-1.4-1.5
		c-0.1-0.1-0.1-0.2-0.2-0.2c-0.6-0.6-1.2-1.3-1.8-1.9l-0.9,1.7c-0.5-0.6-1.1-1.1-1.7-1.7l-5.1,9.4l-0.9,1.6L911,786.2l-8.8,16.2v0
		l-10.2,18.8c-1.2,0.4-2.5,0.7-3.7,1.1c-12.9,3.7-26.4,7-40.4,9.7c-1.6,0.3-3.2,0.6-4.7,0.9c-1.7,0.3-3.4,0.6-5.1,0.9
		c-29.5,5.1-58,7.3-84.3,6.8c-2.7,0-5.4-0.1-8.1-0.2c-71.6-2.7-124.7-25.2-131.2-60.7c-2.1-11.6,0.9-23.6,8.3-35.4
		c8.1-10,17.1-19.2,26.9-27.6c0,0,0,0,0,0c5.7-4.8,11.6-9.3,17.8-13.5c0,0,0,0,0,0c0,0,0.1,0,0.1,0c14.9-9.4,32.4-18,52-25.6
		c0,0,0,0,0,0c25.5-9.9,54.5-18,85.6-23.4c3.8-0.7,7.6-1.3,11.3-1.8c2-0.3,4-0.6,6.1-0.9c44.2-6,85.6-5.4,119.5,0.7
		c3.1,0.5,6,1.1,9,1.8c0.7,0.1,1.4,0.3,2.2,0.5c0.6,0.1,1.1,0.3,1.7,0.4c5.1,1.2,9.9,2.5,14.6,4c6.5,2.5,12.7,5.6,18.7,9.3
		c2.6,1.6,5.2,3.3,7.7,5.2c13.1,9.6,24.5,22.2,33.2,37.1c0,0,0,0,0,0C1031.3,726.2,1023.8,742.7,1008.9,758.4z"/>
	<path class="st0" d="M1046.8,1356.4v-4.9C1046.8,1353.1,1046.8,1354.7,1046.8,1356.4z"/>
	<path class="st0" d="M1133.8,682.7v33c-4.8-7-10-13.8-15.4-20.3c-6.4-7.8-13.3-15.2-20.4-22.3c-4-3.9-8.1-7.8-12.3-11.4
		c5,4.3,11,8.1,17.8,11.4c0.2,0.1,0.3,0.1,0.5,0.2c7.7,3.7,16.4,6.6,25.8,8.6c1.2,0.3,2.5,0.5,3.7,0.7
		C1133.5,682.7,1133.7,682.7,1133.8,682.7z"/>
	<path class="st1" d="M994.8,1132.8v91.4l-186.4,37.3c0,0-0.1,0-0.1,0c-3.3,0.5-6.5,1.1-9.6,1.9c0,0,0,0,0,0
		c-25.8,6.5-47.5,23.1-60.8,45.3c-1.9,3.2-3.6,6.4-5.2,9.8l-18.8,35.8l0,0l-5.9,11.3l0,0c-33.3,60.2-84,104.9-142.2,130.9
		c-51.1,22.8-107.9,31.1-163.9,22.9c74.6,0.8,147.6-39.8,185.5-111.2l0.8-1.6l0-0.1l142-269.9l3.3-6.2l28.5-54.1l66.5-126.3
		l46.5-88.3l21.4-40.7l9.9-18.8v0l30-56.9l4.9-9.3l0.9-1.7c0.6,0.6,1.2,1.3,1.8,1.9c0.1,0.1,0.2,0.2,0.2,0.2c0.5,0.5,0.9,1,1.4,1.5
		c0,0,0.1,0,0.1,0.1c0.6,0.6,1.2,1.3,1.8,1.9c0.8,1,1.7,1.9,2.5,2.9c0.5,0.6,1.1,1.2,1.6,1.8c0,0,0,0,0.1,0.1
		c0.6,0.6,1.1,1.3,1.6,1.9c1.1,1.3,2.2,2.7,3.3,4.1c0.4,0.5,0.8,1.1,1.3,1.6c0.3,0.4,0.7,0.9,1,1.3c0.4,0.5,0.7,0.9,1,1.4
		c1.4,1.9,2.7,3.8,4,5.7c0.3,0.4,0.5,0.7,0.7,1.1c0.4,0.6,0.8,1.2,1.2,1.9c0.3,0.4,0.6,0.8,0.8,1.2c1.2,1.8,2.3,3.6,3.4,5.5
		c0.3,0.4,0.5,0.8,0.7,1.2c1.1,1.8,2.2,3.7,3.2,5.5c0.6,1.1,1.2,2.1,1.7,3.2c0.3,0.6,0.6,1.1,0.9,1.7c0.3,0.6,0.6,1.1,0.9,1.7
		c0.1,0.2,0.3,0.5,0.4,0.7v0c6.4,12.7,11.4,26.2,15,40.3v0l-31.5,59.9c0,0,0,0,0,0c-0.1,0.2-0.1,0.3-0.2,0.5l-0.1,0.1l-5.7,10.8
		l-0.1,0.2l-43.5,82.6l-44.8,85.2l-55.3,105.1l-0.1,0.2h0l-4,7.6c-0.3,0.5-0.6,1-0.7,1.4l0.7-1.4c1.5-2.2,4.5-4.5,8.7-6.7h0
		c2.2-1.2,4.7-2.3,7.5-3.4l50.6-10.1l0.3,0c0,0,0,0,0,0c0,0,0,0,0,0L994.8,1132.8z"/>
	<path class="st0" d="M808.3,1261.5l-9.6,1.9C801.8,1262.7,805,1262,808.3,1261.5z"/>
	<path class="st0" d="M807,1177.2l-0.7,1.4C806.4,1178.2,806.7,1177.7,807,1177.2z"/>
	<path class="st0" d="M823.3,1167.1c-2.8,1.1-5.3,2.2-7.5,3.4h0c-4.2,2.2-7.2,4.5-8.7,6.7l4-7.6h0l0.4-0.1h0l11.7-2.4
		C823.2,1167.1,823.2,1167.1,823.3,1167.1L823.3,1167.1z"/>
	<polygon class="st0" points="1046.8,1122.4 1046.8,1213.8 994.8,1224.2 994.8,1132.8 1025.9,1126.5 	"/>
	<polygon class="st0" points="1185.8,1094.5 1185.8,1185.9 1133.8,1196.4 1133.8,1105 	"/>
	<path class="st0" d="M1246.5,1082.4c-7,1.8-14.1,3.2-21.4,4.3L1246.5,1082.4z"/>
	<path class="st0" d="M1279.9,1167.1l-8.7,1.7c2.9-0.7,5.7-1.5,8.6-2.3L1279.9,1167.1z"/>
	<path class="st0" d="M882.8,586.1c-1.9,0-3.8,0-5.7,0.1c-18.6,0.5-36.7,2.6-54.3,6.1v-6.2H882.8z"/>
	<path class="st0" d="M996,673.1H822.8v-21.8c44.2-6,85.6-5.4,119.5,0.7c3.1,0.5,6,1.1,9,1.8c0.7,0.1,1.4,0.3,2.2,0.5
		c0.6,0.1,1.1,0.3,1.7,0.4c5.1,1.2,9.9,2.5,14.6,4c6.5,2.5,12.7,5.6,18.7,9.3C991,669.6,993.5,671.3,996,673.1z"/>
	<path class="st0" d="M1103.5,673.1h-5.6c-4-3.9-8.1-7.8-12.3-11.4C1090.7,665.9,1096.7,669.8,1103.5,673.1z"/>
	<path class="st0" d="M707.8,1365.7l-84.8,161.1l-57.5-30.2C623.8,1470.6,674.5,1426,707.8,1365.7z"/>
	<path class="st0" d="M737.8,1308.8l-5.2,9.8C734.1,1315.3,735.9,1312,737.8,1308.8z"/>
	<path class="st0" d="M807,1177.2l-0.7,1.4C806.4,1178.2,806.7,1177.7,807,1177.2z"/>
	<path class="st0" d="M960.8,884.9l-0.2,0.5C960.6,885.3,960.7,885.1,960.8,884.9C960.7,885,960.8,884.9,960.8,884.9z"/>
	<path class="st0" d="M1023.3,766l-12.4,23.6l-2.3,4.3L992.3,825c-3.6-14.1-8.6-27.6-15-40.3v0c-0.1-0.2-0.3-0.5-0.4-0.7
		c-0.3-0.6-0.6-1.1-0.9-1.7c-0.3-0.6-0.6-1.1-0.9-1.7c-0.6-1.1-1.1-2.2-1.7-3.2c-1-1.9-2.1-3.7-3.2-5.5c-0.2-0.4-0.5-0.8-0.7-1.2
		c-1.1-1.8-2.2-3.7-3.4-5.5c-0.3-0.4-0.5-0.8-0.8-1.2c-0.4-0.6-0.8-1.2-1.2-1.9c-0.2-0.4-0.5-0.7-0.7-1.1c-1.3-1.9-2.7-3.8-4-5.7
		c-0.3-0.5-0.7-0.9-1-1.4c-0.3-0.4-0.7-0.9-1-1.3c-0.4-0.5-0.8-1.1-1.3-1.6c-1.1-1.4-2.1-2.7-3.3-4.1c-0.5-0.7-1.1-1.3-1.6-1.9
		c0,0,0-0.1-0.1-0.1c-0.5-0.6-1.1-1.2-1.6-1.8c-0.8-1-1.7-2-2.5-2.9c-0.6-0.7-1.2-1.3-1.8-1.9c0,0,0,0-0.1-0.1
		c-0.4-0.5-0.9-1-1.4-1.5c-0.1-0.1-0.1-0.2-0.2-0.2c-0.6-0.6-1.2-1.3-1.8-1.9l4.7-8.9l62.5,32.9l0.4,0.2L1023.3,766z"/>
	<path class="st0" d="M1172.8,682.4c-0.6,0.1-1.2,0.3-1.8,0.4c-3.2,0.6-6.6,1.1-10,1.3c-0.6,0-1.2,0.1-1.8,0.1
		c0.7-0.1,1.4-0.2,2.1-0.3c3.3-0.5,6.7-1,10-1.4C1171.8,682.5,1172.3,682.4,1172.8,682.4z"/>
	<path class="st0" d="M922.7,1359.9c0,55-44.5,99.5-99.5,99.5c-11,0-21.5-1.8-31.4-5.1c-39.6-13.1-68.1-50.5-68.1-94.4
		c0-14.7,3.2-28.7,8.9-41.3c1.5-3.4,3.3-6.7,5.2-9.8c13.3-22.2,35-38.8,60.8-45.3c0,0,0,0,0,0c3.2-0.8,6.4-1.4,9.6-1.9
		c0,0,0.1,0,0.1,0c4.8-0.7,9.8-1.1,14.8-1.1c18.8,0,36.4,5.2,51.5,14.3C903.4,1292.2,922.7,1323.8,922.7,1359.9z"/>
	<path class="st0" d="M1391.3,1454.3c-23.6,40.8-76.4,56.7-130.5,43.8c0,0-0.1,0-0.1,0c-16-3.8-32-10.1-47.5-19
		c-49.9-28.8-79.4-76.8-79.4-121.2c0-16,3.8-31.5,11.9-45.4c30.5-52.8,110.2-63.9,178-24.8
		C1391.5,1326.9,1421.8,1401.5,1391.3,1454.3z"/>
	<path class="st0" d="M1046.8,1356.4c-1,43.7-30.4,90.5-79.4,118.8c-23.7,13.7-48.8,21.2-72.8,23c-0.3,0-0.5,0-0.8,0.1
		c-42.6,2.9-81.5-12.4-102-43.8c-0.9-1.3-1.7-2.6-2.5-4c-30.5-52.9-0.3-127.4,67.5-166.6c5.8-3.4,11.8-6.4,17.8-9
		c63.4-27.9,132.4-14.5,160.3,33.8c7.6,13.3,11.5,27.9,11.9,42.9C1046.8,1353.1,1046.8,1354.7,1046.8,1356.4z"/>
	<path class="st0" d="M807,1177.2l-0.7,1.4C806.4,1178.2,806.7,1177.7,807,1177.2z"/>
	<path class="st0" d="M873.9,1157l-50.6,10.1c8.3-3.3,19.1-6.1,31-8.1C861.2,1158,867.8,1157.3,873.9,1157z"/>
	<line class="st0" x1="994.8" y1="1245.1" x2="994.8" y2="1224.2"/>
	<line class="st0" x1="994.8" y1="1132.8" x2="994.8" y2="1108.1"/>
	<line class="st0" x1="1185.8" y1="1244.6" x2="1185.8" y2="1185.9"/>
	<polyline class="st0" points="1185.8,1094.5 1185.8,1088.8 1185.8,1076.6 	"/>
	<g>
		<path class="st2" d="M1279.8,1166.5c-2.8,0.8-5.7,1.6-8.6,2.3l-0.1,0l-29.4,5.9l-0.1,0l-55.9,11.2v-91.4l39.3-7.9l0.1,0
			c7.3-1.1,14.4-2.5,21.4-4.3h0c91.3-23.3,157.7-105.8,155.4-202.4c-2.8-112.5-97.9-201.5-212.5-198.7c-5.6,0.1-11.1,0.5-16.6,1
			c-0.5,0-1,0.1-1.5,0.2c-3.4,0.4-6.7,0.8-10,1.4c-0.7,0.1-1.4,0.2-2.1,0.3c-7.9,0.5-16.5,0-25.3-1.5c-0.1,0-0.2,0-0.3-0.1
			c-1.2-0.2-2.4-0.4-3.7-0.7c-9.4-2-18.1-4.9-25.8-8.6c-0.2-0.1-0.3-0.2-0.5-0.2c-6.8-3.3-12.9-7.2-17.8-11.4
			c4.2,3.7,8.3,7.5,12.3,11.4c7.2,7.1,14,14.5,20.4,22.3c5.4,6.5,10.5,13.3,15.4,20.3v642.3c0,44.4,29.6,92.4,79.4,121.2
			c15.4,8.9,31.5,15.2,47.5,19c0,0,0.1,0,0.1,0v11h-367v-10.9c0.3,0,0.5,0,0.8-0.1c24-1.8,49.1-9.3,72.8-23
			c49-28.3,78.4-75.1,79.4-118.8c0-1.6,0-3.3,0-4.9V774.9c0-9.7-1.1-19.6-3.5-29.5c-0.7-2.9-1.4-5.7-2.3-8.6
			c-3-9.5-6.9-18.4-11.7-26.6c0,0,0,0,0,0c-8.7-14.9-20.1-27.5-33.2-37.1c-2.5-1.8-5-3.6-7.7-5.2c-6-3.7-12.2-6.8-18.7-9.3
			c-4.6-1.5-9.5-2.8-14.6-4c-0.6-0.1-1.1-0.3-1.7-0.4c-0.7-0.2-1.4-0.3-2.2-0.5c-2.9-0.6-5.9-1.2-9-1.8c-34-6.1-75.3-6.7-119.5-0.7
			c-2,0.3-4,0.6-6.1,0.9c-3.8,0.6-7.5,1.2-11.3,1.8c-31.1,5.4-60.1,13.4-85.6,23.4c0,0,0,0,0,0c-18.7,6.1-36.1,14.8-52,25.6
			c0,0,0,0-0.1,0c0,0,0,0,0,0c-6.2,4.2-12.1,8.7-17.8,13.5c0,0,0,0,0,0c-9.8,8.3-18.8,17.6-26.9,27.6c-6.5,8.1-12.5,16.7-17.7,25.8
			c37.5-89.5,118.4-157.4,217.5-177.7c17.6-3.6,35.7-5.7,54.3-6.1c1.9,0,3.8-0.1,5.7-0.1h309v0c165.2-2.6,301.9,126.1,305.9,288.6
			C1501,1012.2,1408.4,1130.1,1279.8,1166.5z"/>
	</g>
	<path class="st0" d="M894.6,1498.1c-0.3,0-0.5,0-0.8,0.1v-0.1H894.6z"/>
	<path class="st0" d="M1260.8,1498.1L1260.8,1498.1C1260.7,1498.2,1260.7,1498.1,1260.8,1498.1L1260.8,1498.1z"/>
</g>
<g id="Calque_2">
	<path class="st0" d="M1488.4,1018.1c0,32.8-3,65-8.9,96.1c-0.5,2.6-1,5.2-1.5,7.8c-5.5,27.1-13.1,53.4-22.6,78.8
		c-12.9,34.5-29.4,67.2-49.1,97.8c0,0,0,0,0,0c0,0,0,0,0,0c0,0,0,0,0,0c-35.5,55.3-81.3,103.5-134.6,141.8
		c-19.2,13.8-39.4,26.3-60.4,37.5c-8.7,4.6-17.5,8.9-26.5,13.1c0,0,0,0-0.1,0c-14.6,6.7-29.6,12.8-45,18.1
		c-53.6,18.7-111.3,28.9-171.3,28.9c-89.1,0-172.9-22.4-246.2-61.9c-3-1.6-6-3.3-9-4.9c0,0,0,0,0,0c-63.6-35.9-119-84.8-162.3-143.2
		c-13.4-18-25.6-36.8-36.6-56.4c-25.3-45.2-44-94.6-54.9-146.8c-7.2-34.4-10.9-70.1-10.9-106.6c0-220,136.7-408.2,329.8-484.1
		c56.9-22.4,118.6-35,183.2-35.8c0.1,0,0.1,0,0.2,0c2.2,0,4.5,0,6.7,0c56.5,0,110.8,9,161.7,25.6c50.1,16.4,96.9,40.2,139,70.1
		c0.6,0.5,1.3,0.9,1.9,1.4c43.7,31.3,82.4,69.3,114.5,112.4c0,0,0,0,0,0c54.7,73.3,90.5,161.5,100.2,257.5
		C1487.5,982.5,1488.4,1000.2,1488.4,1018.1z"/>
	<path class="st0" d="M1474.7,1033.1c0,31.4-2.6,62.2-7.7,92.1c-0.2,1.4-0.5,2.7-0.7,4.1v0c-4.2,23.7-9.9,46.9-17,69.4
		c-11.1,35-25.6,68.5-43.1,99.9c0,0,0,0,0,0c0,0,0,0,0,0c0,0,0,0,0,0c-35.5,55.3-81.3,103.5-134.6,141.8c1.6,1.2,3.1,2.4,4.7,3.5
		c17.3-11.2,33.9-23.4,49.8-36.5c-13.7,14.4-28.2,28-43.5,40.8c-16.9,14.1-34.7,27.2-53.2,39.1c-12.1,7.7-24.5,15-37.2,21.7
		c-38.3,20.2-79.3,35.8-122.3,45.8c-24.5,5.7-49.7,9.6-75.5,11.6h-0.1c-13.1,1-26.3,1.5-39.6,1.5c-39.6,0-78.1-4.5-115.2-13.2
		c-48.8-11.3-94.9-29.7-137.4-54.1c-65-37.3-121.5-88.5-165.5-149.7c-16-22.3-30.4-45.8-42.9-70.5c-25-49.2-42.8-102.9-51.9-159.6
		c-4.6-28.6-7-58-7-87.9c0-250.9,167.8-461.4,394.3-519.2c40.3-10.3,82.3-15.7,125.7-15.7c2.2,0,4.5,0,6.7,0c0.1,0,0.1,0,0.2,0
		c53.7,0.7,105.4,9.8,154,26.1c29.4,9.8,57.7,22.3,84.5,37.1c15.9,8.8,31.3,18.4,46.2,28.8c41,28.6,77.8,63.1,109.3,102.3
		c67.6,84.1,110.7,189.9,118,305.7C1474.4,1009.7,1474.7,1021.3,1474.7,1033.1z"/>
	<path class="st0" d="M1509.9,1077.8c-0.5,3.7-1,7.4-1.6,11c-0.1,0.6-0.2,1.3-0.3,1.9c-0.2,1-0.3,2.1-0.5,3.1
		c-0.1,0.3-0.1,0.6-0.1,0.9c-0.3,1.8-0.6,3.6-1,5.5c-0.3,1.5-0.5,2.9-0.8,4.4c0,0.2-0.1,0.4-0.1,0.7c-0.1,0.3-0.1,0.6-0.2,0.9
		c0,0.1-0.1,0.3-0.1,0.4c-0.3,1.7-0.7,3.3-1,5c11.3-14.2,21.1-29.2,29.3-44.9c0.3-6.5,0.4-13,0.4-19.6c0-12.4-0.4-24.6-1.3-36.8
		c0,0,0,0,0,0c-3.9-55.4-16.4-108.3-36.3-157.6c-6.8-16.9-14.5-33.4-23-49.4c0,0,0,0,0,0c-11.6-21.8-24.6-42.6-39.1-62.4
		c0,0,0,0,0,0c-43.2-59.1-98.5-108.8-162.3-145.3c-0.9-0.5-1.8-1.1-2.8-1.6c-22-12.5-45-23.3-68.9-32.5
		c-43.2-16.6-89.2-27.6-137-32.1h0c-16.2-1.5-32.6-2.3-49.3-2.3C726.8,527,494,759.8,494,1046.9c0,33.6,3.2,66.5,9.3,98.3
		c7,36.7,17.9,72,32.2,105.5c0,0,0,0,0,0c1.9,4.4,3.8,8.8,5.9,13.2h0c5.9,12.9,12.4,25.6,19.4,37.9c37.8,67.1,90,124.9,152.5,169.3
		c0,0,0,0,0,0c2.8,2,5.6,3.9,8.4,5.8c53.9,36.7,115,63.5,180.7,77.9c29.8,6.5,60.6,10.5,92.1,11.6h0.1c6.4,0.2,12.9,0.4,19.4,0.4
		c38.3,0,75.6-4.1,111.5-12c44.7-9.8,87.3-25.3,126.8-45.8c2.8-1.5,5.7-3,8.5-4.5c17.7-9.5,34.7-20.1,51-31.5h0c0,0,0.1-0.1,0.1-0.1
		c0,0,0,0,0,0c2.8-2,5.7-4,8.5-6.1c82.1-60,145.9-143.4,181.6-240.4v0c12.5-34.1,21.6-69.8,26.8-106.9c0,0,0,0,0-0.1
		c0.8-6.1,1.6-12.2,2.2-18.4c1.1-10.3,1.8-20.6,2.3-31.1c-1.3,10.9-3,21.7-4.9,32.3h0c-0.6,3.5-1.3,7.1-2.1,10.6
		c-6.9,33.2-17,65.3-29.9,95.8c-1.5,3.5-3,7-4.5,10.4c-32.9,73.3-82.2,137.6-143.3,188.2c-15.8,13.1-32.4,25.3-49.8,36.5
		c-1.6-1.2-3.2-2.3-4.7-3.5c53.3-38.3,99-86.5,134.6-141.8c0,0,0,0,0,0c0,0,0,0,0,0c0,0,0,0,0,0c18-28.1,33.4-58,45.8-89.4
		c1.1-2.8,2.2-5.6,3.2-8.4c2.4-6.3,4.7-12.8,6.8-19.2c-0.1,0.2-0.1,0.4-0.2,0.6c0,0.1-0.1,0.2-0.1,0.3c-0.5,1.5-1.1,2.9-1.6,4.4
		c0,0.1-0.1,0.2-0.1,0.3c-0.4,1.2-0.9,2.4-1.4,3.6c-0.2,0.5-0.3,0.9-0.5,1.3c-0.6,1.7-1.3,3.3-1.9,5c-0.1,0.2-0.1,0.3-0.2,0.5
		c-0.6,1.5-1.2,3-1.8,4.5c-0.1,0.2-0.1,0.3-0.2,0.5c-0.2,0.4-0.3,0.9-0.5,1.3c-0.7,1.7-1.4,3.4-2.1,5
		c-32.8,77.6-83.9,145.7-147.8,198.6c-15.8,13.1-32.4,25.3-49.8,36.5c-1.6-1.2-3.2-2.3-4.7-3.5c53.3-38.3,99-86.5,134.6-141.8
		c0,0,0,0,0,0c0,0,0,0,0,0c0,0,0,0,0,0c19.6-30.6,36.1-63.3,49.1-97.8c9.5-25.4,17.1-51.7,22.6-78.8c0.5-2.6,1-5.2,1.5-7.8
		c12.4-15.2,23.1-31.4,31.9-48.4c-0.2,2-0.5,4-0.7,6S1510.2,1075.8,1509.9,1077.8z"/>
	<path class="st0" d="M1514.7,1006.9c0,19.9-1.1,39.6-3.3,59c0,0,0,0,0,0c-8.8,17-19.5,33.2-31.9,48.4c-0.5,2.6-1,5.2-1.5,7.8
		c-5.5,27.1-13.1,53.4-22.6,78.8c-12.9,34.5-29.4,67.2-49.1,97.8c0,0,0,0,0,0c0,0,0,0,0,0c0,0,0,0,0,0
		c-35.5,55.3-81.3,103.5-134.6,141.8c1.6,1.2,3.1,2.4,4.7,3.5c-20.2,13.1-41.4,24.8-63.4,34.9c-9.3,4.3-18.6,8.3-28.2,12.1
		c0,0,0,0-0.1,0c-17.9,7-36.2,13.1-55,18.1c-43,11.5-88.3,17.7-134.9,17.7c-95.5,0-185-25.8-261.9-70.7
		c-68.3-39.9-126.8-95-170.6-160.6c-6.9-10.4-13.5-21-19.7-31.8c-2.5-4.3-4.8-8.6-7.1-13c0,0,0,0,0,0c-18.8-35.4-33.7-73.2-44-112.8
		c-10.9-41.8-16.6-85.7-16.6-131c0-209.9,124.4-390.7,303.5-472.8c16.5-7.6,33.5-14.3,50.8-20.1c52-17.5,107.7-26.9,165.6-26.9
		c70.2,0,137.2,13.9,198.3,39.1c58.5,24.2,111.7,58.7,157.2,101.4c39,36.5,72.4,79,98.7,126.1c0,0,0,0,0,0c9,16,17.1,32.6,24.4,49.6
		c0,0,0,0,0,0c9.8,23,18,46.7,24.4,71.3C1508.8,916.7,1514.7,961.1,1514.7,1006.9z"/>
	<path class="st0" d="M1536.9,989.1L1536.9,989.1c-3.2-61.7-16.2-120.8-37.5-175.7v0c-44.1-113.8-123.7-209.8-225.2-274.5
		c-27.4-6.1-54.5-10.4-81.1-12.8c-61.1-25.2-128.1-39.1-198.3-39.1c-57.9,0-113.6,9.5-165.6,26.9
		c-226.4,57.8-394.3,268.3-394.3,519.2c0,29.9,2.4,59.3,7,87.9c9.1,56.7,26.9,110.4,51.9,159.6c12.5,24.7,26.9,48.3,42.9,70.5
		c-5,6.7-10.6,12.9-16.7,18.6c45.6,58.3,102.4,107.4,167.1,144.3c5.4-4.1,10.4-8.5,15.1-13.2c42.5,24.3,88.7,42.8,137.4,54.1
		c37,8.6,75.6,13.2,115.2,13.2c13.3,0,26.6-0.5,39.6-1.5h0.1c6.4,0.2,12.9,0.4,19.4,0.4c38.3,0,75.6-4.1,111.5-12h35.7
		c34-12.2,66.5-27.6,97.1-45.8c0.8-0.5,1.7-1,2.5-1.5c17.7-10.6,34.7-22.1,51-34.5h0c0,0,0.1-0.1,0.1-0.1c0,0,0,0,0,0
		c2.7-2.1,5.4-4.1,8.1-6.2c0,0,0,0,0,0c79.7-62.7,142.2-146.1,179.4-242.2v0c13-33.5,22.9-68.6,29.4-104.9c0,0,0,0,0-0.1
		c1.1-6.2,2.1-12.5,3-18.8c3.8-26.7,5.8-54,5.8-81.7C1537.7,1009.1,1537.4,999.1,1536.9,989.1z M1528.4,1102.5L1528.4,1102.5
		c-0.7,3.5-1.3,7.1-2.1,10.6c-6.9,33.2-17,65.3-29.9,95.8c-1.5,3.5-3,7-4.5,10.4c-32.9,73.3-82.2,137.6-143.3,188.2
		c-15.8,13.1-32.4,25.3-49.8,36.5c-1.6-1.2-3.2-2.3-4.7-3.5c53.3-38.3,99-86.5,134.6-141.8c0,0,0,0,0,0c0,0,0,0,0,0c0,0,0,0,0,0
		c18-28.1,33.4-58,45.8-89.4c1.1-2.8,2.2-5.6,3.2-8.4c2.4-6.3,4.7-12.8,6.8-19.2c-0.1,0.2-0.1,0.4-0.2,0.6c0,0.1-0.1,0.2-0.1,0.3
		c-0.5,1.5-1.1,2.9-1.6,4.4c0,0.1-0.1,0.2-0.1,0.3c-0.4,1.2-0.9,2.4-1.4,3.6c-0.2,0.5-0.3,0.9-0.5,1.3c-0.6,1.7-1.3,3.3-1.9,5
		c-0.1,0.2-0.1,0.3-0.2,0.5c-0.6,1.5-1.2,3-1.8,4.5c-0.1,0.2-0.1,0.3-0.2,0.5c-0.2,0.4-0.3,0.9-0.5,1.3c-0.7,1.7-1.4,3.4-2.1,5
		c-32.8,77.6-83.9,145.7-147.8,198.6c-15.8,13.1-32.4,25.3-49.8,36.5c-1.6-1.2-3.2-2.3-4.7-3.5c53.3-38.3,99-86.5,134.6-141.8
		c0,0,0,0,0,0c0,0,0,0,0,0c0,0,0,0,0,0c19.6-30.6,36.1-63.3,49.1-97.8c9.5-25.4,17.1-51.7,22.6-78.8c0.5-2.6,1-5.2,1.5-7.8
		c12.4-15.2,23.1-31.4,31.9-48.4c-0.2,2-0.5,4-0.7,6s-0.5,4-0.8,6c-0.5,3.7-1,7.4-1.6,11c-0.1,0.6-0.2,1.3-0.3,1.9
		c-0.2,1-0.3,2.1-0.5,3.1c-0.1,0.3-0.1,0.6-0.1,0.9c-0.3,1.8-0.6,3.6-1,5.5c-0.3,1.5-0.5,2.9-0.8,4.4c0,0.2-0.1,0.4-0.1,0.7
		c-0.1,0.3-0.1,0.6-0.2,0.9c0,0.1-0.1,0.3-0.1,0.4c-0.3,1.7-0.7,3.3-1,5c11.3-14.2,21.1-29.2,29.3-44.9c0,1.2-0.1,2.4-0.1,3.6
		C1532,1081,1530.4,1091.8,1528.4,1102.5z"/>
	<g>
		<path class="st1" d="M1274.1,538.9c-27.4-6.1-54.5-10.4-81.1-12.8c-61.1-25.2-128.1-39.1-198.3-39.1c-57.9,0-113.6,9.5-165.6,26.9
			c-226.4,57.8-394.3,268.3-394.3,519.2c0,29.9,2.4,59.3,7,87.9c9.1,56.7,26.9,110.4,51.9,159.6c12.5,24.7,26.9,48.3,42.9,70.5
			c-5,6.7-10.6,12.9-16.7,18.6c-18.4-23.4-34.9-48.4-49.5-74.5c-29.8-53.7-51.2-112.7-62.4-175.2c-5.9-32.8-8.9-66.5-8.9-100.9
			c0-314.4,254.8-569.2,569.2-569.2C1080.9,449.9,1185.8,482.5,1274.1,538.9z"/>
		<path class="st1" d="M1161.1,1554.9c-60.2,21.6-125.1,33.4-192.7,33.4s-132.5-11.8-192.7-33.4c-30.9-11.1-60.5-24.8-88.7-40.8
			c5.4-4.1,10.4-8.5,15.1-13.2c42.5,24.3,88.7,42.8,137.4,54.1c37,8.6,75.6,13.2,115.2,13.2c13.3,0,26.6-0.5,39.6-1.5h0.1
			c6.4,0.2,12.9,0.4,19.4,0.4c38.3,0,75.6-4.1,111.5-12H1161.1z"/>
		<path class="st1" d="M1533.5,1066.5c0,1.2-0.1,2.4-0.1,3.6c-1.3,10.9-3,21.7-4.9,32.3h0c-0.6,3.5-1.3,7.1-2.1,10.6
			c-6.9,33.2-17,65.3-29.9,95.8c-1.5,3.5-3,7-4.5,10.4c-32.9,73.3-82.2,137.6-143.3,188.2c-15.8,13.1-32.4,25.3-49.8,36.5
			c-1.6-1.2-3.2-2.3-4.7-3.5c53.3-38.3,99-86.5,134.6-141.8c0,0,0,0,0,0c0,0,0,0,0,0c0,0,0,0,0,0c18-28.1,33.4-58,45.8-89.4
			c1.1-2.8,2.2-5.6,3.2-8.4c2.4-6.3,4.7-12.8,6.8-19.2c0,0,0,0,0-0.1c6.4-19.4,11.7-39.2,15.8-59.5c0.5-2.6,1-5.2,1.5-7.8
			c0.7-0.9,1.5-1.8,2.2-2.8C1515.4,1097.3,1525.3,1082.3,1533.5,1066.5z"/>
	</g>
	<path d="M1533.9,1065.8c-0.2,1.4-0.3,2.9-0.5,4.3c0.1-1.2,0.1-2.4,0.1-3.6C1533.6,1066.3,1533.7,1066.1,1533.9,1065.8z"/>
	<path class="st0" d="M1658.6,963c-18.6,60.2-64.3,107.1-126.7,137.9c-0.3,0.1-0.5,0.3-0.8,0.4c-0.9,0.4-1.8,0.9-2.7,1.3
		c2-10.7,3.6-21.4,4.9-32.3c0.1-1.2,0.1-2.4,0.1-3.6c-8.2,15.7-18,30.8-29.3,44.9c0.3-1.7,0.7-3.3,1-5c0-0.1,0.1-0.3,0.1-0.4
		c0-0.3,0.1-0.6,0.2-0.9c0-0.2,0.1-0.4,0.1-0.7c0.3-1.5,0.5-2.9,0.8-4.4c0.3-1.8,0.7-3.6,1-5.5c0-0.3,0.1-0.6,0.1-0.9
		c0.2-1,0.3-2.1,0.5-3.1c0.1-0.6,0.2-1.3,0.3-1.9c0.6-3.7,1.1-7.3,1.6-11c0.3-2,0.5-4,0.8-6s0.5-4,0.7-6
		c-8.8,17-19.5,33.2-31.9,48.4c-0.5,2.6-1,5.2-1.5,7.8c-2.3,0.7-4.6,1.4-6.9,2h0c-1.3,0.4-2.7,0.8-4,1.2
		c-38.9,10.8-81.6,16.6-126.8,16.9c-49.4,0.4-101.6-5.8-154.5-19.1c-11.4-2.9-22.8-6.1-34.2-9.6c-6-1.8-11.9-3.8-17.8-5.8
		c-30.7-10.4-59.7-22.8-87-36.8c-94.3-48.4-166.6-116.2-205.5-189.2c-31.3-58.7-41-120.7-23.1-178.7c6-19.4,14.8-37.4,26.1-53.9
		c16.5-24.2,38.2-45.2,64.1-62.8c42.1-28.5,95.2-47.9,154.8-56.8h0c17-2.5,34.6-4.3,52.5-5.1c4.8-0.2,9.6-0.4,14.4-0.5
		c20.5-0.4,41.5,0.4,62.9,2.3c26.6,2.4,53.7,6.6,81.1,12.8c17,3.8,34,8.3,51.1,13.6C1557.3,624.3,1706.5,808.1,1658.6,963z"/>
	<path class="st0" d="M1540,950.1c0,13.2-1.1,26.3-3.1,39.1v0c-1.1,7.1-2.6,14.1-4.3,21c0,0,0,0,0,0c-4.8,19.3-12,37.9-21.2,55.7
		c0,0,0,0,0,0c-8.8,17-19.5,33.2-31.9,48.4c-2.7,3.3-5.5,6.6-8.4,9.8h0c-1.5,1.8-3.1,3.5-4.8,5.2v0c-21.1,22.7-46.2,42.7-74.3,59.5
		h0c-39.2,23.3-84.3,40.1-133.1,48.6c-23.6,4.1-48.1,6.3-73.2,6.3c-17.7,0-35-1.1-52-3.1c-30.4-3.7-59.6-10.6-87-20.3
		c-126.6-44.8-215.2-148.9-215.2-270.1c0-23.6,3.4-46.5,9.7-68.5c23.6-81.7,88.4-150.2,175.2-189.4c23.5-10.6,48.7-19.1,75.1-25.2
		c0.3-0.1,0.6-0.1,0.9-0.2c29.7-6.7,61-10.3,93.3-10.3c61.6,0,119.5,13,169.9,35.9c10.3,4.7,20.2,9.7,29.8,15.2c0,0,0,0,0,0
		c17.4,9.9,33.7,21,48.7,33.2c0,0,0,0,0,0c5.1,4.1,9.9,8.4,14.7,12.7c0,0,0,0,0,0c12.5,11.5,24,23.9,34.2,36.9
		c5.8,7.4,11.3,15.1,16.3,22.9v0C1525.3,854.2,1540,900.7,1540,950.1z"/>
	<path class="st0" d="M1455.4,1200.8c-12.9,34.5-29.4,67.2-49.1,97.8c0,0,0,0,0,0c0,0,0,0,0,0c0,0,0,0,0,0
		c-35.5,55.3-81.3,103.5-134.6,141.8c-34.3-26.5-55.7-64.6-55.7-107c0-36.9,16.3-70.5,43.1-96.1c31.3-29.9,77-48.7,127.8-48.7
		c1.8,0,3.5,0,5.2,0.1h0c20.2,0.5,39.5,4,57.3,9.9C1451.4,1199.4,1453.4,1200.1,1455.4,1200.8z"/>
	<path class="st0" d="M1557.7,1333.5c0,80-76.5,144.8-170.9,144.8c-23.6,0-46-4-66.4-11.3c-0.1-0.1-0.3-0.1-0.4-0.2c0,0,0,0,0,0
		c-13.4-4.8-26-11.1-37.3-18.5c-2.1-1.4-4.2-2.8-6.3-4.3c17.3-11.2,33.9-23.4,49.8-36.5c64-53,115.1-121,147.8-198.6
		c0.2,0.1,0.4,0.2,0.6,0.3c-12.4,31.4-27.8,61.3-45.8,89.4c0,0,0,0,0,0c0,0,0,0,0,0c0,0,0,0,0,0c-35.5,55.3-81.3,103.5-134.6,141.8
		c1.6,1.2,3.1,2.4,4.7,3.5c17.3-11.2,33.9-23.4,49.8-36.5c61.1-50.6,110.5-114.9,143.3-188.2c2.6,1.7,5.1,3.4,7.5,5.3v0
		c0.9,0.6,1.7,1.3,2.6,1.9v0C1536.2,1253,1557.7,1291.1,1557.7,1333.5z"/>
	<path class="st0" d="M520,1369.8c-25.9,24.4-60.8,39.3-99.2,39.3c-2.6,0-5.3-0.1-7.9-0.2c-76.3-4.1-136.9-67.3-136.9-144.6
		c0-75.7,58.1-137.8,132.1-144.3c11.2,62.5,32.6,121.5,62.4,175.2C485.1,1321.4,501.7,1346.3,520,1369.8z"/>
	<path class="st0" d="M565.6,1264.3c0,10.7-1.2,21.2-3.4,31.2c-0.5,2.1-1,4.3-1.6,6.4c-2.4,9.1-5.7,17.8-9.8,26.1
		c-4,8.2-8.8,15.9-14.2,23.2c-16-22.3-30.4-45.8-42.9-70.5c-25-49.2-42.8-102.9-51.9-159.6c6,0.9,11.9,2.1,17.6,3.7
		c11.3,3.1,22,7.6,32,13.2c4,2.3,8,4.7,11.8,7.4c36.8,25.5,61.2,67.6,62.3,115.5C565.6,1261.9,565.6,1263.1,565.6,1264.3z"/>
	<path class="st0" d="M743.4,1405.1c0,18-3.7,35.1-10.5,51c-3,6.9-6.5,13.6-10.7,20c-0.2,0.3-0.4,0.6-0.6,0.9
		c-5.6,8.5-12.1,16.5-19.4,23.8c-4.7,4.7-9.8,9.1-15.1,13.2c-29.1,22.4-67.2,35.9-108.9,35.9c-89.8,0-163-62.8-165.2-141.1
		c0-1.3-0.1-2.5-0.1-3.8c0-44,22.4-83.4,57.7-109.9c14.5,26.2,31.1,51.1,49.5,74.5c6.1-5.7,11.7-12,16.7-18.6
		c-16-22.3-30.4-45.8-42.9-70.5c6.6-3.4,13.5-6.5,20.6-9.1c8.6-3.2,17.7-5.7,27-7.6h0c0.4-0.1,0.8-0.2,1.3-0.3
		c7.5-1.4,15.2-2.4,23-2.9c4.2-0.3,8.4-0.4,12.6-0.4C669.4,1260.3,743.4,1325.2,743.4,1405.1z"/>
	<line class="st0" x1="1303.5" y1="1554.9" x2="1161.1" y2="1554.9"/>
	<polyline class="st0" points="1125.5,1554.9 1070,1554.9 902.4,1554.9 839.7,1554.9 	"/>
	<line class="st0" x1="775.7" y1="1554.9" x2="693.3" y2="1554.9"/>
</g>
</svg>
