<svg width="71" height="71" viewBox="0 0 71 71" fill="none" xmlns="http://www.w3.org/2000/svg">
<g clip-path="url(#clip0_12_42)">
<path fill-rule="evenodd" clip-rule="evenodd" d="M0 35.4989C0 49.5507 8.16524 61.6943 20.0071 67.4477L3.07308 21.0521C1.10499 25.4654 0 30.3513 0 35.4989ZM59.4648 33.7083C59.4648 29.3195 57.8872 26.282 56.5382 23.9189C54.7387 20.9923 53.0502 18.5161 53.0502 15.5916C53.0502 12.3278 55.5242 9.2902 59.0121 9.2902C59.1697 9.2902 59.3184 9.31013 59.4715 9.319C53.1567 3.53232 44.7407 0 35.4993 0C23.0961 0 12.1862 6.36357 5.83817 15.9999C6.67244 16.0265 7.4579 16.0421 8.12354 16.0421C11.8356 16.0421 17.5846 15.5916 17.5846 15.5916C19.4972 15.4785 19.7235 18.2919 17.8109 18.516C17.8109 18.516 15.8872 18.7423 13.7482 18.8555L26.6751 57.3077L34.4454 34.0078L28.9161 18.8555C27.0035 18.7423 25.1907 18.516 25.1907 18.516C23.2781 18.4029 23.5022 15.4785 25.417 15.5916C25.417 15.5916 31.2792 16.0421 34.7671 16.0421C38.4792 16.0421 44.2282 15.5916 44.2282 15.5916C46.143 15.4785 46.3671 18.2919 44.4545 18.516C44.4545 18.516 42.5286 18.7423 40.3918 18.8555L53.2211 57.0148L56.7645 45.184C58.2955 40.2715 59.4648 36.7458 59.4648 33.7083ZM66.6511 18.4679C66.8042 19.5995 66.8908 20.811 66.8908 22.1179C66.8908 25.719 66.2162 29.7683 64.1905 34.8339L53.347 66.1836C63.902 60.0308 71 48.595 71 35.4995C71 29.3268 69.4224 23.5246 66.6511 18.4679ZM36.1228 38.6043L25.4703 69.5547C28.652 70.491 32.0158 71.0014 35.4993 71.0014C39.633 71.0014 43.598 70.2869 47.2879 68.9889C47.1947 68.8358 47.106 68.676 47.035 68.5007L36.1228 38.6043Z" fill="#00759D"/>
</g>
<defs>
<clipPath id="clip0_12_42">
<rect width="71" height="71" fill="white"/>
</clipPath>
</defs>
</svg>
